<?xml version="1.0" encoding="UTF-8" standalone="no"?>
<!-- Created with Inkscape (http://www.inkscape.org/) -->

<svg
   width="8.467555mm"
   height="7.1562171mm"
   viewBox="0 0 8.467555 7.1562171"
   version="1.1"
   id="svg1"
   xml:space="preserve"
   inkscape:version="1.3 (0e150ed6c4, 2023-07-21)"
   sodipodi:docname="back-icon.svg"
   inkscape:export-filename="Digital-Fiwg.png"
   inkscape:export-xdpi="327.1481"
   inkscape:export-ydpi="327.1481"
   xmlns:inkscape="http://www.inkscape.org/namespaces/inkscape"
   xmlns:sodipodi="http://sodipodi.sourceforge.net/DTD/sodipodi-0.dtd"
   xmlns="http://www.w3.org/2000/svg"
   xmlns:svg="http://www.w3.org/2000/svg"><sodipodi:namedview
     id="namedview1"
     pagecolor="#ffffff"
     bordercolor="#000000"
     borderopacity="0.25"
     inkscape:showpageshadow="2"
     inkscape:pageopacity="0.0"
     inkscape:pagecheckerboard="0"
     inkscape:deskcolor="#d1d1d1"
     inkscape:document-units="mm"
     inkscape:zoom="14.481547"
     inkscape:cx="6.4910193"
     inkscape:cy="13.914259"
     inkscape:window-width="1858"
     inkscape:window-height="1057"
     inkscape:window-x="-8"
     inkscape:window-y="-8"
     inkscape:window-maximized="1"
     inkscape:current-layer="layer1" /><defs
     id="defs1" /><g
     inkscape:label="Layer 1"
     inkscape:groupmode="layer"
     id="layer1"
     transform="translate(158.00608,-466.213)"><path
       id="path7"
       style="color:#000000;fill:#f9f9f9;stroke-width:0.882733;stroke-linecap:round;stroke-linejoin:round;-inkscape-stroke:none;paint-order:markers stroke fill"
       d="m -154.33474,466.54008 c -0.14418,-0.004 -0.28428,0.0483 -0.38956,0.14689 l -2.71875,2.53764 c -0.22706,0.21204 -0.23108,0.57073 -0.009,0.78779 l 2.76345,2.68956 c 0.21554,0.21039 0.56093,0.20589 0.77091,-0.0101 0.20906,-0.21546 0.20437,-0.55944 -0.0105,-0.7691 l -1.77038,-1.72385 h 4.99455 c 0.311,-3.5e-4 0.5628,-0.25282 0.56245,-0.56381 3.5e-4,-0.311 -0.25145,-0.56342 -0.56245,-0.56382 h -4.98086 l 1.70332,-1.58973 c 0.2193,-0.20532 0.23095,-0.54942 0.026,-0.7691 -0.0986,-0.10553 -0.23516,-0.16756 -0.37953,-0.17244 z"
       sodipodi:nodetypes="cccccccccccccccc" /></g></svg>
